<?xml version="1.0" encoding="UTF-8" standalone="no"?>
<svg
   xmlns:dc="http://purl.org/dc/elements/1.1/"
   xmlns:cc="http://creativecommons.org/ns#"
   xmlns:rdf="http://www.w3.org/1999/02/22-rdf-syntax-ns#"
   xmlns:svg="http://www.w3.org/2000/svg"
   xmlns="http://www.w3.org/2000/svg"
   xmlns:sodipodi="http://sodipodi.sourceforge.net/DTD/sodipodi-0.dtd"
   xmlns:inkscape="http://www.inkscape.org/namespaces/inkscape"
   viewBox="0 0 100 100"
   version="1.1"
   id="svg914"
   sodipodi:docname="Houston.svg"
   inkscape:version="0.92.5 (2060ec1f9f, 2020-04-08)">
  <metadata
     id="metadata920">
    <rdf:RDF>
      <cc:Work
         rdf:about="">
        <dc:format>image/svg+xml</dc:format>
        <dc:type
           rdf:resource="http://purl.org/dc/dcmitype/StillImage" />
      </cc:Work>
    </rdf:RDF>
  </metadata>
  <defs
     id="defs918" />
  <sodipodi:namedview
     pagecolor="#ffffff"
     bordercolor="#666666"
     borderopacity="1"
     objecttolerance="10"
     gridtolerance="10"
     guidetolerance="10"
     inkscape:pageopacity="0"
     inkscape:pageshadow="2"
     inkscape:window-width="640"
     inkscape:window-height="565"
     id="namedview916"
     showgrid="false"
     inkscape:zoom="2.36"
     inkscape:cx="50"
     inkscape:cy="50"
     inkscape:window-x="0"
     inkscape:window-y="0"
     inkscape:window-maximized="0"
     inkscape:current-layer="svg914" />
  <path
     d="M36.9126,63.85693H33.54785V81.56641H36.9126Zm-.709,17.00049H34.25684v-2.686h1.94678Zm0-3.395H34.25684V74.77h1.94678Zm0-3.40137H34.25684V71.36865h1.94678Zm0-3.40137H34.25684V67.96729h1.94678Zm0-3.40137H34.25684V64.56592h1.94678Zm-5.34814-3.40137H27.49072V81.56641h3.36475Zm-.709,17.00049H28.19971v-2.686h1.94678Zm0-3.395H28.19971V74.77h1.94678Zm0-3.40137H28.19971V71.36865h1.94678Zm0-3.40137H28.19971V67.96729h1.94678Zm0-3.40137H28.19971V64.56592h1.94678Zm48.41992-3.40137H75.20166V81.57275h3.36475Zm-.709,17.00684H75.91064V78.17139h1.94678Zm0-3.40137H75.91064V74.77h1.94678Zm0-3.40137H75.91064V71.36865h1.94678Zm0-3.40137H75.91064V67.96729h1.94678Zm0-3.40137H75.91064V64.56592h1.94678Zm-5.34814-3.40137H69.14453V81.57275h3.36475Zm-.709,17.00684H69.85352V78.17139h1.94678Zm0-3.40137H69.85352V74.77h1.94678Zm0-3.40137H69.85352V71.36865h1.94678Zm0-3.40137H69.85352V67.96729h1.94678Zm0-3.40137H69.85352V64.56592h1.94678Zm-5.34814-3.40137H63.0874V81.57275h3.36475Zm-.709,17.00684H63.79639V78.17139h1.94678Zm0-3.40137H63.79639V74.77h1.94678Zm0-3.40137H63.79639V71.36865h1.94678Zm0-3.40137H63.79639V67.96729h1.94678Zm0-3.40137H63.79639V64.56592h1.94678ZM36.55811,26.50537h2.65576v.709H36.55811Zm8.7124.709H42.61523v-.709h2.65527Zm6.05713,0H48.67236v-.709h2.65527Zm6.05713,0H54.72949v-.709h2.65527Zm6.05713,0H60.78613v-.709h2.65576ZM38.85938,16.96582h.709v1.94434h-.709Zm4.729,0h.709v1.94434h-.709Zm12.82324,1.94434h-.709V16.96582h.709Zm4.729,0h-.709V16.96582h.709Zm-18.87988,48.999H45.625V29.87744H42.26074Zm.709-37.32275H44.916v2.66309H42.96973Zm0,3.37207H44.916v2.69238H42.96973Zm0,3.40137H44.916v2.69238H42.96973Zm0,3.40137H44.916v2.69238H42.96973Zm0,3.40137H44.916V46.855H42.96973Zm0,3.40137H44.916v2.69238H42.96973Zm0,3.40137H44.916v2.69238H42.96973Zm0,3.40137H44.916v2.69238H42.96973Zm0,3.40137H44.916v2.6875H42.96973Zm0,3.39648H44.916v2.69238H42.96973Zm0,3.40137H44.916V67.2002H42.96973Zm5.34814,3.34326h3.36426V29.87744H48.31787Zm.709-37.32275h1.94629v2.66309H49.02686Zm0,3.37207h1.94629v2.69238H49.02686Zm0,3.40137h1.94629v2.69238H49.02686Zm0,3.40137h1.94629v2.69238H49.02686Zm0,3.40137h1.94629V46.855H49.02686Zm0,3.40137h1.94629v2.69238H49.02686Zm0,3.40137h1.94629v2.69238H49.02686Zm0,3.40137h1.94629v2.69238H49.02686Zm0,3.40137h1.94629v2.6875H49.02686Zm0,3.39648h1.94629v2.69238H49.02686Zm0,3.40137h1.94629V67.2002H49.02686ZM54.375,67.90918h3.36426V29.87744H54.375Zm.709-37.32275h1.94629v2.66309H55.084Zm0,3.37207h1.94629v2.69238H55.084Zm0,3.40137h1.94629v2.69238H55.084Zm0,3.40137h1.94629v2.69238H55.084Zm0,3.40137h1.94629V46.855H55.084Zm0,3.40137h1.94629v2.69238H55.084Zm0,3.40137h1.94629v2.69238H55.084Zm0,3.40137h1.94629v2.69238H55.084Zm0,3.40137h1.94629v2.6875H55.084Zm0,3.39648h1.94629v2.69238H55.084Zm0,3.40137h1.94629V67.2002H55.084Zm-.709,17.00684h3.36426V70.687H54.375ZM55.084,71.396h1.94629v2.68164H55.084Zm0,3.39063h1.94629v2.687H55.084Zm0,3.396h1.94629v2.68115H55.084Zm-6.77539,3.39014h3.36426V70.687H48.30859Zm.709-10.17676h1.94629v2.68164H49.01758Zm0,3.39063h1.94629v2.687H49.01758Zm0,3.396h1.94629v2.68115H49.01758Zm-6.76611,3.39014h3.36426V70.687H42.25146Zm.709-10.17676h1.94629v2.68164H42.96045Zm0,3.39063h1.94629v2.687H42.96045Zm0,3.396h1.94629v2.68115H42.96045ZM24.18457,50.51172a2.537,2.537,0,0,0-4.53467-.3667,1.961,1.961,0,0,0-.37061-.03516,1.981,1.981,0,0,0,0,3.96191h5.2041a1.79526,1.79526,0,0,0,1.79395-1.79248A1.81737,1.81737,0,0,0,24.18457,50.51172Zm.29883,2.85107H19.2793a1.272,1.272,0,1,1,.43164-2.46777l.31055.11328.13428-.30225a1.82743,1.82743,0,0,1,3.44824.31934l.09424.39893.38135-.15088a1.1038,1.1038,0,0,1,1.48877,1.00586A1.08539,1.08539,0,0,1,24.4834,53.36279ZM83.126,39.31934h1.037a2.89429,2.89429,0,0,0,0-5.78857,2.92714,2.92714,0,0,0-.67969.07959,3.75618,3.75618,0,0,0-5.39075-1.31219,37.90557,37.90557,0,0,0-10.37683-8.068v-1.1955H65.03174V14.90479H50.35449V9.7627h6.894L55.38037,7.269l1.86816-2.49365H49.63135V9.7627h.01416v5.14209H34.93994v8.12988H32.28418v1.19806A37.94078,37.94078,0,1,0,83.126,39.31934ZM50.35449,5.48438h5.47705L54.49463,7.269l1.33691,1.78467H50.35449ZM80.186,32.36768a3.059,3.059,0,0,1,2.78906,1.812l.13428.30029.30957-.11133a2.18589,2.18589,0,1,1,.74414,4.2417H76.03564a1.8916,1.8916,0,1,1,0-3.7832,1.8686,1.8686,0,0,1,.70215.13672l.38281.15381.09473-.40137A3.03951,3.03951,0,0,1,80.186,32.36768ZM35.64893,15.61377H64.32275V20.2627H52.27936a2.44338,2.44338,0,0,0,.1723-.88916,2.46558,2.46558,0,1,0-4.93115,0,2.44338,2.44338,0,0,0,.1723.88916H35.64893Zm16.09375,3.75977a1.75659,1.75659,0,1,1-1.75684-1.75684A1.75879,1.75879,0,0,1,51.74268,19.37354ZM35.64893,20.97168H48.124a2.43192,2.43192,0,0,0,3.72418,0H64.32275v2.063H35.64893ZM18.03223,76.79919a37.17582,37.17582,0,0,1,14.252-51.75171V60.45557h-14.252Zm6.05713,7.64954q-1.01111-.98227-1.94678-2.03784v-.83813h1.94678Zm0-3.585H22.14258V78.17139h1.94678Zm0-3.40137H22.14258V74.77h1.94678Zm0-3.40137H22.14258V71.36865h1.94678Zm0-3.40137H22.14258V67.96729h1.94678Zm0-3.40137H22.14258V64.56592h1.94678Zm6.05713,21.96686q-.9949-.63025-1.94678-1.31964v-.77515h1.94678Zm0-2.80377H28.19971V84.999h1.94678Zm6.05713,5.90277c-.658-.26367-1.30786-.54285-1.94678-.84241V89.28613h1.94678Zm0-3.747H34.25684V87.13037h1.94678Zm0-2.15576H34.25684V84.999h1.94678ZM39.605,93.49817c-.91187-.26581-1.81067-.56158-2.69238-.89392V84.29H33.54785v6.85077q-1.37842-.68225-2.69238-1.46991V84.29H27.49072V87.3819q-1.3992-1.06613-2.69238-2.2572V63.85693H21.43359V81.59265a37.43145,37.43145,0,0,1-2.69238-3.66248V61.16455H39.605ZM38.85938,33.9585v2.69238H36.9126V33.9585Zm-1.94678-.709V30.58643h1.94678v2.66309Zm1.94678,4.11035v2.69238H36.9126V37.35986Zm0,3.40137v2.69238H36.9126V40.76123Zm0,3.40137V46.855H36.9126V44.1626Zm0,3.40137v2.69238H36.9126V47.564Zm0,3.40137v2.69238H36.9126V50.96533Zm0,3.40137v2.69238H36.9126V54.3667Zm0,3.40137v2.6875H36.9126v-2.6875ZM44.90674,94.629q-.98135-.13495-1.94629-.31921v-.71161h1.94629Zm0-1.73981H42.96045V91.44238h1.94629Zm0-2.15576H42.96045V89.28613h1.94629Zm0-2.15625H42.96045V87.13037h1.94629Zm0-2.15576H42.96045V84.97412h1.94629Zm6.05713,8.54047c-.32129.00824-.64062.02448-.96387.02448-.32947,0-.655-.01636-.98242-.0249V93.59814h1.94629Zm0-2.07269H49.01758V91.44238h1.94629Zm0-2.15576H49.01758V89.28613h1.94629Zm0-2.15625H49.01758V87.13037h1.94629Zm0-2.15576H49.01758V84.97412h1.94629Zm6.06641,7.89q-.9646.18521-1.94629.31873v-1.032h1.94629Zm0-1.42224H55.084V91.44238h1.94629Zm0-2.15576H55.084V89.28613h1.94629Zm0-2.15625H55.084V87.13037h1.94629Zm0-2.15576H55.084V84.97412h1.94629ZM59.686,93.7c-.64264.1734-1.291.33221-1.94678.4715V84.26514H54.375V94.72052c-.89209.105-1.79205.18292-2.70215.22339V84.26514H48.30859V94.94342c-.907-.04077-1.80371-.11926-2.69287-.22412V84.26514H42.25146v9.90417c-.65265-.13879-1.29791-.29675-1.9375-.46936V60.45557h-.74561V29.87744H36.20361V60.45557H32.99316V23.74365H67.00684V60.45557H63.79639V29.87744H60.43164V60.45557H59.686Zm1.45459-36.64087V54.3667H63.0874v2.69238Zm1.94678.709v2.6875H61.14063v-2.6875Zm-1.94678-4.11035V50.96533H63.0874v2.69238Zm0-3.40137V47.564H63.0874v2.69238Zm0-3.40137V44.1626H63.0874V46.855Zm0-3.40137V40.76123H63.0874v2.69238Zm0-3.40137V37.35986H63.0874v2.69238Zm0-3.40137V33.9585H63.0874v2.69238Zm0-3.40137V30.58643H63.0874v2.66309Zm4.60254,58.23224c-.63892.29956-1.28876.57874-1.94678.84241v-.91107h1.94678Zm0-.77765H63.79639v-1.418h1.94678Zm0-2.127H63.79639V87.13037h1.94678Zm0-2.15576H63.79639V84.97412h1.94678Zm6.05713,1.48413q-.95114.69-1.94678,1.31964V87.13037h1.94678Zm0-1.48413H69.85352V84.97412h1.94678Zm9.4585-8.49121a37.50763,37.50763,0,0,1-8.74951,9.45172V84.26514H69.14453V89.6709q-1.3114.78992-2.69238,1.46991V84.26514H63.0874v8.33911c-.88171.33234-1.78052.62811-2.69238.89392V61.16455H81.25879Zm-13.543-17.47461V25.0401a37.20489,37.20489,0,0,1,9.82312,7.70355,3.74009,3.74009,0,0,0-.90808,1.44385,2.6005,2.6005,0,1,0-.59521,5.13184H82.3222a37.16625,37.16625,0,0,1-.35443,37.47986V60.45557Z"
     id="path912"
     style="fill:rgb(108, 43, 217);fill-opacity:1" />
</svg>
