<?xml version="1.0" encoding="UTF-8" standalone="no"?>
<svg
   xmlns:dc="http://purl.org/dc/elements/1.1/"
   xmlns:cc="http://creativecommons.org/ns#"
   xmlns:rdf="http://www.w3.org/1999/02/22-rdf-syntax-ns#"
   xmlns:svg="http://www.w3.org/2000/svg"
   xmlns="http://www.w3.org/2000/svg"
   xmlns:sodipodi="http://sodipodi.sourceforge.net/DTD/sodipodi-0.dtd"
   xmlns:inkscape="http://www.inkscape.org/namespaces/inkscape"
   viewBox="0 0 100 100"
   version="1.1"
   id="svg934"
   sodipodi:docname="Miami.svg"
   inkscape:version="0.92.5 (2060ec1f9f, 2020-04-08)">
  <metadata
     id="metadata940">
    <rdf:RDF>
      <cc:Work
         rdf:about="">
        <dc:format>image/svg+xml</dc:format>
        <dc:type
           rdf:resource="http://purl.org/dc/dcmitype/StillImage" />
      </cc:Work>
    </rdf:RDF>
  </metadata>
  <defs
     id="defs938" />
  <sodipodi:namedview
     pagecolor="#ffffff"
     bordercolor="#666666"
     borderopacity="1"
     objecttolerance="10"
     gridtolerance="10"
     guidetolerance="10"
     inkscape:pageopacity="0"
     inkscape:pageshadow="2"
     inkscape:window-width="640"
     inkscape:window-height="565"
     id="namedview936"
     showgrid="false"
     inkscape:zoom="2.36"
     inkscape:cx="50"
     inkscape:cy="50"
     inkscape:window-x="0"
     inkscape:window-y="0"
     inkscape:window-maximized="0"
     inkscape:current-layer="svg934" />
  <path
     d="M43.92188,72.10107h2.748V68.8252h-2.748Zm.709-2.56689h1.33008v1.85791H44.63086Zm-.709-2.65137h2.748V63.60693h-2.748Zm.709-2.56689h1.33008v1.85791H44.63086ZM32.44141,81.86719H29.09766v4.02588h3.34375Zm-.709,3.31689H29.80664V82.57617h1.92578Zm5.99609-3.31689H34.38477v4.02588h3.34375Zm-.709,3.31689H35.09375V82.57617h1.92578Zm6.90234-23.52h2.748V58.38867h-2.748Zm.709-2.56641h1.33008v1.85742H44.63086Zm-.709-2.65186h2.748V53.17041h-2.748Zm.709-2.56641h1.33008v1.85742H44.63086Zm-.709-2.65186h2.748V47.95215h-2.748Zm.709-2.56641h1.33008v1.85742H44.63086Zm-.709-5.76025v3.1084h2.748v-3.1084l-1.374-.93848Zm2.03906,2.39941H44.63086V43.2749l.665-.4541.665.4541Zm2.60156,32.0542h2.748V74.07861h-2.748Zm.709-2.56689h1.33008v1.85791H49.27148Zm2.03906-11.18066h-2.748v3.27588h2.748Zm-.709,2.56689H49.27148V64.31592h1.33008Zm.709-7.78516h-2.748v3.27539h2.748Zm-.709,2.56641H49.27148V59.09766h1.33008Zm.709-7.78467h-2.748V56.4458h2.748Zm-.709,2.56641H49.27148V53.87939h1.33008Zm.709-7.78467h-2.748v3.27539h2.748Zm-.709,2.56641H49.27148V48.66113h1.33008Zm.709-7.61768-1.374-.93848-1.374.93848v3.1084h2.748Zm-.709,2.39941H49.27148V43.2749l.665-.4541.665.4541Zm5.34961,23.5249h-2.748v3.27588h2.748Zm-.709,2.56689H53.91211V69.53418h1.33008Zm.709-7.78516h-2.748v3.27588h2.748Zm-.709,2.56689H53.91211V64.31592h1.33008Zm.709-7.78516h-2.748v3.27539h2.748Zm-.709,2.56641H53.91211V59.09766h1.33008Zm.709-7.78467h-2.748V56.4458h2.748Zm-.709,2.56641H53.91211V53.87939h1.33008Zm.709-7.78467h-2.748v3.27539h2.748Zm-.709,2.56641H53.91211V48.66113h1.33008Zm.709-7.61768-1.374-.93848-1.374.93848v3.1084h2.748Zm-.709,2.39941H53.91211V43.2749l.665-.4541.665.4541ZM51.31055,20.97559a1.374,1.374,0,1,0-2.748,0V23.207h2.748Zm-.709,1.52246H49.27148V20.97559a.665.665,0,1,1,1.33008,0Zm-4.9707,61.51807a1.37378,1.37378,0,1,0-1.373-1.37354A1.37525,1.37525,0,0,0,45.63086,84.01611Zm0-2.03857a.6648.6648,0,1,1-.66406.665A.66548.66548,0,0,1,45.63086,81.97754Zm8.61035,2.03857a1.37378,1.37378,0,1,0-1.373-1.37354A1.37525,1.37525,0,0,0,54.24121,84.01611Zm0-2.03857a.6648.6648,0,1,1-.66406.665A.66611.66611,0,0,1,54.24121,81.97754Zm16.66113-.11035H67.55859v4.02588h3.34375Zm-.709,3.31689H68.26758V82.57617h1.92578Zm-4.57812-3.31689H62.27148v4.02588h3.34375Zm-.709,3.31689H62.98047V82.57617h1.92578ZM89.40918,43.9209a3.65337,3.65337,0,0,0-.94043.12158,4.80378,4.80378,0,0,0-4.19629-2.5592A38.187,38.187,0,0,0,54.73779,20.10474V17.53906H54.7373V15.51611h0V14.22168h-.709v1.29443h-.90723v-2.7749h.00049a3.21762,3.21762,0,0,0-1.92139-2.58807V7.67139H50.292V4.87158h-.709v2.7998h-.91113v2.48224a3.21942,3.21942,0,0,0-1.92212,2.58759h.0022v2.7749h-.92187V14.22168h-.709v1.29443h-.00024V18.248h.00024v1.8717a37.74436,37.74436,0,0,0-18.6084,7.84552,2.85526,2.85526,0,0,0-5.03027-.16644,2.19884,2.19884,0,0,0-.45215-.0459,2.22266,2.22266,0,1,0,0,4.44531H21.967A37.91861,37.91861,0,1,0,87.92285,57.72266a38.28236,38.28236,0,0,0-.55713-6.47021h2.04346a3.66577,3.66577,0,1,0,0-7.33154ZM54.75488,25.26953H56.8916v1.89111H54.75488Zm2.8457,2.6001h.25781l-.83984,1.89063H51.43164a3.39523,3.39523,0,0,0-.66113-1.89062Zm-.35449,12.05615h-3.334v-1.8916h5.58105v1.8916Zm2.24707.709V74.01025H57.60059V40.63477ZM48.5625,68.8252v2.7583a7.36764,7.36764,0,0,0-1.75085,2.42676h-3.8302V40.63477H56.8916V74.01025H53.0614a7.38069,7.38069,0,0,0-1.75085-2.42664V68.8252Zm2.03906.709v1.85791H49.27148V69.53418ZM40.37988,39.92578v-1.8916H45.9668v.10742h-.00586v1.78418Zm1.89258.709V74.01025H40.37988V40.63477Zm.709-6.22168V30.46924H45.9668v6.856h-2.25V34.41309Zm.02637.709V37.3252H40.37988V35.12207Zm6.92871-7.146a2.74664,2.74664,0,0,1,0,3.88281,2.74664,2.74664,0,0,1,0-3.88281Zm-4.10645-.81543V25.26953h3.752v1.89111Zm4.46094,0V25.26953H54.0459v1.89111Zm1.10156,6.96729v.28516H48.48047v-.28516a1.45605,1.45605,0,0,1,2.91211,0Zm-2.19629-2.02576a2.16219,2.16219,0,0,0-1.4248,2.02576v.99414h4.33008v-.99414A2.1621,2.1621,0,0,0,50.67615,32.102a3.33724,3.33724,0,0,0,.7113-1.63275h1.81567v6.856H46.67578v-6.856H48.4856A3.33759,3.33759,0,0,0,49.19629,32.10217Zm4.00684,5.932v1.8916H50.35449v-1.8916Zm-3.55762,0v1.8916H46.66992V38.1416h.00586v-.10742Zm4.2666-.709v-6.856H56.8916v3.94385h-.73535V37.3252Zm2.95313,0V35.12207h2.62793V37.3252ZM54.0459,24.56055H45.83008V18.248H54.0459ZM52.4126,12.74121H51.2998a5.91307,5.91307,0,0,0-.3645-1.9292A2.51133,2.51133,0,0,1,52.4126,12.74121Zm-.00049.709v2.06592H47.46094V13.4502ZM49.38086,8.38037h1.11035V9.94476a3.16968,3.16968,0,0,0-.553-.05591l-.00073-.00018-.00024.00006-.00073-.00006a3.164,3.164,0,0,0-.55566.05621Zm.5564,2.21735.00037.00006c.15881.00055.59.74158.65247,2.14343H49.28394C49.34656,11.33911,49.77881,10.59814,49.93726,10.59772Zm-.99744.2132a5.90389,5.90389,0,0,0-.3656,1.9303H47.45874A2.5138,2.5138,0,0,1,48.93982,10.81091Zm-3.1283,5.41418h8.2168v1.314h-8.2168Zm3.29065,11.64453a3.395,3.395,0,0,0-.66077,1.89063H42.84277l-.82812-1.89062h7.08752Zm-6.12073-.709V25.26953h2.13965v1.89111ZM21.03027,31.48926a1.51367,1.51367,0,1,1,0-3.02734,1.47641,1.47641,0,0,1,.51172.08936l.31152.11523.13574-.30371a2.15244,2.15244,0,0,1,4.06152.377l.09375.39941.38184-.15137a1.31782,1.31782,0,0,1,1.78125,1.2041,1.29982,1.29982,0,0,1-1.29883,1.29736ZM18.49414,76.62793v.8645a37.15534,37.15534,0,0,1,4.4292-45.29419h4.08545a1.99889,1.99889,0,0,0,.33228-3.97144,37.01694,37.01694,0,0,1,17.78-7.38983v3.72357H42.98145V22.40576h-.709v4.75488H40.92969l1.34277,3.06354v4.1889H39.6709V62.22137c-.05566.01031-.11389.00677-.16895.02032a3.87554,3.87554,0,0,0-7.06641.59619,2.6477,2.6477,0,0,0-.624-.07422,2.6748,2.6748,0,0,0,0,5.34961H39.6709v5.897H21.8291V64.562H17.78516l.55664,1.374-.55664,1.374h3.335v6.7002h-1.917V71.74658h-.709ZM39.6709,62.93878V67.4043H31.81152a1.96582,1.96582,0,0,1,0-3.93164,1.93828,1.93828,0,0,1,.73047.14258l.38281.15479.09473-.40186a3.166,3.166,0,0,1,5.97363-.55615l.13477.30127.31055-.1123A2.22646,2.22646,0,0,1,39.6709,62.93878ZM18.83789,65.271h2.28223v1.33008H18.83789l.26953-.665ZM21.0957,81.12775c-.66455-.81915-1.29834-1.66425-1.89258-2.53857V77.33691H21.0957Zm-1.89258-4.49982V74.71924H39.6709v.00049h3.31055v-.00049h3.51709c-.547,1.2608-.94727,1.96619-2.76807,1.90869H19.20313Zm5.26172,8.12787V82.57617h1.92578v2.60791H24.91406C24.76123,85.04449,24.61523,84.89795,24.46484,84.7558Zm7.26758,5.36987q-.98181-.55591-1.92578-1.16876v-.433h1.92578Zm5.28711,2.47113c-.65137-.24329-1.29211-.50769-1.92578-.78589v-3.287h1.92578Zm2.65137.87061q-.98236-.28436-1.94238-.61908V87.81494H34.38477v3.675c-.65747-.3053-1.30713-.62451-1.94336-.96643V87.81494H29.09766v.67926a37.45434,37.45434,0,0,1-3.37317-2.60114h1.37512V81.86719H23.75586v2.21259c-.679-.67615-1.32556-1.38391-1.95117-2.11035V79.95654H39.6709Zm2.60156.65735q-.95581-.20279-1.89258-.45557V79.95654h1.89258Zm2.415-6.43408v.00513h.58887v6.93091c-.77246-.09839-1.538-.21753-2.29492-.36261V79.95654h5.2998v4.69458a1.15345,1.15345,0,0,0-.52246-.1394h-.002a1.48589,1.48589,0,0,0-1.374,1.09668,1.7884,1.7884,0,0,1-1.77051,1.37842v.709C44.63843,87.6958,44.66187,87.69128,44.6875,87.69067Zm6.9043-1.78638V85.631a.586.586,0,0,1,.5332-.41132h.001c.04785,0,.42578.02051.67871.65234a3.4466,3.4466,0,0,0,.68188,1.11475H46.35913a3.4466,3.4466,0,0,0,.68188-1.11475c.251-.62744.627-.65186.69043-.65186a.54913.54913,0,0,1,.5498.52v.16406Zm-2.60156-.709V80.90283a.94629.94629,0,1,1,1.89258,0v4.29248ZM46.834,94.79285c-.28333-.024-.56714-.04541-.84863-.07574V87.6958H49.582v2.11053A3.09575,3.09575,0,0,0,46.834,92.873Zm5.49609.06378c-.77136.04791-1.54687.08038-2.33008.08038-.82642,0-1.64392-.0368-2.457-.09009V92.873a2.39355,2.39355,0,1,1,4.78711,0Zm1.55664-.12323c-.28076.0293-.56506.04608-.84766.06909V92.873a3.09575,3.09575,0,0,0-2.748-3.06671V87.6958h3.5957Zm3.00488-.44653q-1.13635.21378-2.2959.35614V87.6958h.63867v-.709a1.78944,1.78944,0,0,1-1.77148-1.37842,1.48339,1.48339,0,0,0-1.35156-1.09717,1.20508,1.20508,0,0,0-.51953.12756V79.95654h5.2998Zm2.60156-.58154c-.62488.165-1.25537.316-1.89258.44879V79.95654h1.89258ZM64.90625,91.811c-.63354.2782-1.27441.54254-1.92578.78583V88.52393h1.92578Zm5.28613-2.85345q-.94409.6124-1.92578,1.16876V88.52393h1.92578Zm5.34277-4.20172c-.15039.14215-.29639.2887-.44922.42828H73.60938V82.57617h1.92578Zm2.66016-2.78638c-.62561.72644-1.27222,1.4342-1.95117,2.11035V81.86719H72.90039v4.02588h1.37512a37.44672,37.44672,0,0,1-3.37415,2.60181v-.67993H67.55762v2.709c-.63586.34174-1.28516.66077-1.94238.96594v-3.675H62.27148v5.03339q-1.02136.35788-2.06934.65521v-13.547H78.19531Zm0-2.72186H51.5918V78.3125h-.709v1.23578a1.63922,1.63922,0,0,0-1.89258,0V78.3125h-.709v.93506H21.80469V77.33691h21.9082c.05762.00146.11426.002.16992.002,2.25977,0,2.76367-1.168,3.39648-2.63721l.13477-.30957a6.69459,6.69459,0,0,1,1.63367-2.291h1.7782a6.65718,6.65718,0,0,1,1.63306,2.291l.13574.311c.63281,1.46875,1.13574,2.63574,3.39551,2.63574.05566,0,.1123-.00049.16992-.002H78.19531Zm2.60156-1.81006v1.15167c-.59424.87433-1.228,1.71942-1.89258,2.53857V77.33691h1.89258Zm0-.80957H56.14258c-1.79053.05029-2.21582-.64856-2.76758-1.90869H80.79688Zm.709.8645V71.74658h-.709v2.26367h-1.917v-6.7002h3.335l-.55664-1.374.55664-1.374H78.1709v9.44824H60.20215V34.41309H57.60059V30.19647l1.34766-3.03583H57.60059V22.40576h-.709v2.15479H54.75488V20.82117A37.4442,37.4442,0,0,1,83.50513,41.53729a4.765,4.765,0,0,0-3.845,3.26154,3.25265,3.25265,0,0,0-.84766-.11182,3.28271,3.28271,0,1,0,0,6.56543h7.83545a37.56423,37.56423,0,0,1,.56592,6.47021A36.98141,36.98141,0,0,1,81.50586,77.49243Zm-.34375-10.89136H78.87988V65.271h2.28223l-.26953.665Zm8.24707-16.05762H78.8125a2.57373,2.57373,0,1,1,0-5.14746,2.54381,2.54381,0,0,1,.95605.18555l.38281.15479.09473-.40234a4.08793,4.08793,0,0,1,7.71289-.71826l.13477.30078.30957-.11182a2.95746,2.95746,0,1,1,1.00586,5.73877Z"
     id="path932"
     style="fill:rgb(108, 43, 217);fill-opacity:1" />
</svg>
