<?xml version="1.0" encoding="UTF-8" standalone="no"?>
<svg
   xmlns:dc="http://purl.org/dc/elements/1.1/"
   xmlns:cc="http://creativecommons.org/ns#"
   xmlns:rdf="http://www.w3.org/1999/02/22-rdf-syntax-ns#"
   xmlns:svg="http://www.w3.org/2000/svg"
   xmlns="http://www.w3.org/2000/svg"
   xmlns:sodipodi="http://sodipodi.sourceforge.net/DTD/sodipodi-0.dtd"
   xmlns:inkscape="http://www.inkscape.org/namespaces/inkscape"
   viewBox="0 0 100 100"
   version="1.1"
   id="svg946"
   sodipodi:docname="New York.svg"
   inkscape:version="0.92.5 (2060ec1f9f, 2020-04-08)">
  <metadata
     id="metadata952">
    <rdf:RDF>
      <cc:Work
         rdf:about="">
        <dc:format>image/svg+xml</dc:format>
        <dc:type
           rdf:resource="http://purl.org/dc/dcmitype/StillImage" />
      </cc:Work>
    </rdf:RDF>
  </metadata>
  <defs
     id="defs950" />
  <sodipodi:namedview
     pagecolor="#ffffff"
     bordercolor="#666666"
     borderopacity="1"
     objecttolerance="10"
     gridtolerance="10"
     guidetolerance="10"
     inkscape:pageopacity="0"
     inkscape:pageshadow="2"
     inkscape:window-width="640"
     inkscape:window-height="565"
     id="namedview948"
     showgrid="false"
     inkscape:zoom="2.36"
     inkscape:cx="50"
     inkscape:cy="50"
     inkscape:window-x="0"
     inkscape:window-y="0"
     inkscape:window-maximized="0"
     inkscape:current-layer="svg946" />
  <title
     id="title942" />
  <path
     d="M87.88354,69.96191a3.67251,3.67251,0,0,0-.9414.12207,4.76786,4.76786,0,0,0-.4978-.7431A37.93386,37.93386,0,0,0,38.08569,21.72772V13.25781h1.50684v-.709h-.00012V11.19629h.00012v-.709H38.324V8.91046a2.212,2.212,0,0,0,1.85938-2.178V4.46875h-.72607a1.84549,1.84549,0,0,0-1.80811,1.4873h-.94336A1.8658,1.8658,0,0,0,34.842,7.82031v2.667h-1.167v2.77051h1.16754l.0058,3.794-1.26862,6.55047a37.84629,37.84629,0,0,0-11.03766,8.25739,2.532,2.532,0,0,0-4.077.3728,1.96088,1.96088,0,0,0-.37061-.03515,1.981,1.981,0,0,0,0,3.96191h1.00946A37.92135,37.92135,0,1,0,82.78772,77.294h5.09582a3.666,3.666,0,0,0,0-7.332ZM55.676,32.7041a3.3613,3.3613,0,0,1-1.48481,2.64441l.13227-1.05163a2.17117,2.17117,0,0,0,.02539-.31543,2.41429,2.41429,0,0,0-.08472-.623c-.00946-.03491-.02814-.06671-.03912-.1012a2.59628,2.59628,0,0,0-.20472-.48925c-.01324-.02356-.03167-.04462-.04565-.06788a2.99773,2.99773,0,0,0-.34308-.46917c-.01379-.01532-.03039-.02881-.04455-.044a3.542,3.542,0,0,0-.46479-.41864c-.02264-.01709-.04779-.0318-.07092-.04846a4.16845,4.16845,0,0,0-.531-.32593c-.04669-.02417-.09613-.04455-.14416-.06732a4.76383,4.76383,0,0,0-.52795-.21338c-.08332-.02807-.16907-.05072-.25513-.07483-.15546-.04284-.31256-.08081-.47662-.11023-.11969-.02191-.241-.03747-.36438-.05163-.07843-.00879-.15186-.02716-.23182-.03284-.13623-.01074-.27343-.01563-.41259-.01563s-.27735.00489-.41016.01563c-.07916.00562-.15186.0238-.22955.03247-.126.01434-.24988.03021-.372.05267-.16071.02893-.31458.06617-.467.108-.08942.025-.17853.0484-.265.07763a4.77238,4.77238,0,0,0-.51892.20972c-.05078.024-.1029.04547-.15216.071a4.16446,4.16446,0,0,0-.525.32227c-.02484.01782-.05176.03357-.076.05182a3.54692,3.54692,0,0,0-.46161.41583c-.01495.01593-.03241.03021-.04694.04633a2.99471,2.99471,0,0,0-.34234.46814c-.0141.02337-.03266.04467-.046.06842a2.59735,2.59735,0,0,0-.20471.48919c-.011.03449-.02967.06629-.03913.1012a2.41428,2.41428,0,0,0-.08471.623,2.19307,2.19307,0,0,0,.019.28125,1.76644,1.76644,0,0,0,.03955.21972l.10754.87372a3.364,3.364,0,0,1-1.49328-2.652c0-2.15625,2.498-3.91113,5.56836-3.91113S55.676,30.54785,55.676,32.7041Zm-2.69391-4.10266,2.66266-2.3739-1.5625,2.90381A6.84726,6.84726,0,0,0,52.98212,28.60144ZM55.5813,30.4491l3.23437-.59168-2.74945,1.4018A4.10362,4.10362,0,0,0,55.5813,30.4491Zm-8.50977,40.463v11.5827l-4.5498,4.6059V68.81329l9.8081-9.82678V77.17169L47.78052,81.777V70.91211Zm-7.21045-.43634V67.36633l.0293.02918L52.32983,54.92627v3.05731Zm0-4.05408v-3.1159l.0293.02917L52.32983,50.86572V53.9231Zm0-4.06054V59.418L52.32983,46.98419v2.87836Zm.79548-4.73829L38.1402,49.3692l6.83471-5.48511,9.44825.01111L52.35254,45.96h-.02271v.02264ZM43.92365,31.9397c-.02179.09564-.04627.19073-.05994.28827l-5.778,1.38141V28.96326Zm-2.52448-2.08228,3.2348.59174a4.10347,4.10347,0,0,0-.485.8103Zm2.65326,4.051-3.06683-.26288,2.86456-.68537A3.52227,3.52227,0,0,0,44.05243,33.90839Zm.3656.74353c.0379.05987.07629.11938.11774.178l-.76929,7.009-5.68079-6.26959v-1.462Zm5.75409-1.54157a5.63658,5.63658,0,0,0,3.3808,1.59741l-.25287,2.011.00262-.00146L53.115,38.22168A3.20439,3.20439,0,0,1,52.53442,39.75a2.846,2.846,0,0,1-2.41552,1.123h-.01123a2.8609,2.8609,0,0,1-2.42237-1.125,3.20444,3.20444,0,0,1-.58642-1.53614l-.43152-3.492A5.62408,5.62408,0,0,0,50.17212,33.11035Zm-3.477.78516a2.28125,2.28125,0,0,1,1.48279-1.942c.02179-.01013.04406-.01959.06628-.02936a4.07792,4.07792,0,0,1,.44482-.16705q.108-.03351.21955-.06189c.1181-.03088.23962-.05646.36358-.07819q.15372-.02655.31226-.04327.16177-.01675.32788-.023.19437-.00788.39087,0c.11224.00433.22315.01178.3324.02326q.15464.01638.30444.04229c.12714.02222.25177.04834.3728.08008q.10675.02746.21015.05933a4.07938,4.07938,0,0,1,.45349.17035c.01953.0086.03918.017.05847.02594a2.2824,2.2824,0,0,1,1.48541,1.94348,1.01546,1.01546,0,0,1-.00634.10937,4.94312,4.94312,0,0,1-3.07569-1.6455l-.26611-.30176-.26611.30176a4.93824,4.93824,0,0,1-3.20459,1.6621C46.69751,33.97949,46.69507,33.9375,46.69507,33.89551Zm5.49512,7.12v2.17511l-4.03565.001V41.09265a3.829,3.829,0,0,0,1.95313.48938h.01123A3.75551,3.75551,0,0,0,52.19019,41.0155Zm-5.07129-.84167a3.63154,3.63154,0,0,0,.32666.371v2.647l-2.45276.00061-.58978-.65094.76721-6.99017a5.78918,5.78918,0,0,0,.97583.7262l.24872,2.02038A3.91086,3.91086,0,0,0,47.1189,40.17383ZM44.31738,43.5033l-6.23169,5.00109V36.62531Zm8.58179-.31281V40.421c.07465-.08313.14209-.16608.20264-.24713a3.91129,3.91129,0,0,0,.71728-1.86621l.2558-2.03394a5.689,5.689,0,0,0,1.05743-.80987l.73444,7.72595ZM46.13306,29.13135l-1.5625-2.90381,2.66266,2.3739A6.84645,6.84645,0,0,0,46.13306,29.13135ZM50.10767,28.084c-.19233,0-.38184.00873-.56983.02124l.57129-3.61987.57629,3.62012C50.49487,28.09259,50.30267,28.084,50.10767,28.084ZM50.036,20.4007l-1.22845,7.78424a7.96,7.96,0,0,0-.78833.16748l-5.97895-5.33,3.50714,6.51618c-.12109.09448-.238.19158-.34808.29327l-7.11365-1.30206V22.47491A37.11965,37.11965,0,0,1,50.036,20.4007ZM35.551,7.82031A1.15654,1.15654,0,0,1,36.70581,6.665H38.324V6.31055a1.13406,1.13406,0,0,1,1.13331-1.13282l.01709,1.55469A1.50654,1.50654,0,0,1,37.96948,8.2373H35.551Zm0,1.126h2.064v1.541H35.551Zm-1.167,3.60254V11.19629h4.49939v1.35254Zm2.99268.709v3.50684H35.551V13.25781Zm-1.89417,4.21582h1.89417V44.29309l-3.5835-5.74036a8.715,8.715,0,0,1-1.16748-6.29394ZM18.09448,35.4502a1.272,1.272,0,0,1,0-2.544,1.25633,1.25633,0,0,1,.43164.07617l.31055.11328.13428-.30273a1.82743,1.82743,0,0,1,3.44824.31933l.09424.4004.38232-.15235a1.10537,1.10537,0,0,1,1.48779,1.00586,1.0858,1.0858,0,0,1-1.085,1.084ZM37.08032,92.35815a37.19974,37.19974,0,0,1-17.11267-56.199h3.33093a1.79568,1.79568,0,0,0,1.79395-1.793,1.82047,1.82047,0,0,0-2.09277-1.76758c-.01734-.04406-.04151-.08386-.06116-.12658a37.15429,37.15429,0,0,1,10.46954-7.98346L31.92944,32.124a9.42018,9.42018,0,0,0,1.26221,6.80371l4.18506,6.704v3.61145l2.712,8.946-.93658.9339V71.186l-2.07178,2.07568Zm.709-18.80346,4.02343-4.03107v18.2948l-4.02343,4.073Zm6.65283,20.78918a36.8826,36.8826,0,0,1-6.4505-1.64807l6.4505-6.53Zm7.88769.41583c-.34814.01777-.69842.02527-1.04852.03357l1.04852-1.04675Zm2.6294-.22149c-.63629.07715-1.27619.14044-1.92041.18536V93.03876l1.92041-1.91718Zm0-4.4187-4.70764,4.69964a37.33584,37.33584,0,0,1-5.10047-.37085V85.448l7.17871-7.26715V90.11426l2.6294-2.51734Zm2.62939,4.012c-.63434.12305-1.27649.22046-1.92041.311V86.91815l1.92041-1.83856Zm0-10.03339-4.5498,4.356V46.27722l2.38751-2.38086,1.76141.00208a1.71139,1.71139,0,0,1,1.4292.77246A19.28225,19.28225,0,0,1,62.321,56.07422V79.56738l-4.02343,3.852V53.1543h-.709Zm2.6294,9.41724c-.63355.17151-1.27539.3186-1.92041.45685V84.40082L60.218,82.56226Zm.709-.21112V81.88348l2.103-2.01336V73.06268a3.93427,3.93427,0,0,0,4.72363-3.88592v-.85352a4.30448,4.30448,0,0,0-.22943-1.38934L68.97559,64.707a1.72244,1.72244,0,0,0,2.32934-.55853l1.86621-2.87012a1.74846,1.74846,0,0,0-.42944-2.34851l1.62915-2.49915-7.45166-4.78613-1.574,2.45349-2.74957-2.13531a19.946,19.946,0,0,0-3.39715-7.69611,2.40945,2.40945,0,0,0-2.01075-1.07715l-.60864.00013-.80688-8.48841-.00367.00037c.01056-.01624.01844-.03339.02875-.04968l7.86359-.67627L56.35162,32.228c-.01367-.09766-.03814-.19269-.05993-.28846l7.16461-3.6524-8.44043,1.54474c-.11005-.10163-.22687-.19879-.348-.29321l3.50714-6.51618-5.97894,5.33c-.25367-.06617-.51252-.124-.77991-.1659l-1.23969-7.78875c.06623-.00037.132-.00422.19825-.00422a37.22432,37.22432,0,0,1,35.51049,48.3559,4.78177,4.78177,0,0,0-7.75171,2.09039,3.24752,3.24752,0,0,0-.84667-.11132,3.28272,3.28272,0,1,0,0,6.56543h4.65759A36.923,36.923,0,0,1,60.927,93.30426ZM72.153,58.53534l-.13464-.0871a1.7517,1.7517,0,0,0-2.41943.51758l-1.86573,2.87012a1.74932,1.74932,0,0,0,.51758,2.41894l.12213.0791-3.04742,4.67481L63.03,67.606V59.0199l4.103-6.3949,6.25439,4.0166Zm.423,2.35724L70.71021,63.7627a1.04254,1.04254,0,0,1-1.43946.30761l-.63476-.41113a1.04,1.04,0,0,1-.30811-1.4375l1.86572-2.87012a1.0429,1.0429,0,0,1,1.43946-.30761l.63427.41015A1.04215,1.04215,0,0,1,72.57593,60.89258Zm-5.53125,7.43066v.85352A3.22135,3.22135,0,0,1,63.03,72.33453V68.43768l2.51318,1.53595,1.454-2.231A3.63032,3.63032,0,0,1,67.04468,68.32324ZM63.03,57.707V56.07422a20.31668,20.31668,0,0,0-.23419-3.058l2.16485,1.68121ZM56.1629,33.90833a3.52107,3.52107,0,0,0,.20221-.94819l2.86414.68537ZM87.88354,76.585H77.28687a2.57373,2.57373,0,1,1,.95605-4.96191l.38281.15332.09473-.40137a4.08767,4.08767,0,0,1,7.7124-.71777l.13428.30078.30957-.11231A2.95766,2.95766,0,1,1,87.88354,76.585Z"
     id="path944"
     style="fill:rgb(108, 43, 217);fill-opacity:1" />
</svg>
