<?xml version="1.0" encoding="UTF-8" standalone="no"?>
<svg
   xmlns:dc="http://purl.org/dc/elements/1.1/"
   xmlns:cc="http://creativecommons.org/ns#"
   xmlns:rdf="http://www.w3.org/1999/02/22-rdf-syntax-ns#"
   xmlns:svg="http://www.w3.org/2000/svg"
   xmlns="http://www.w3.org/2000/svg"
   xmlns:sodipodi="http://sodipodi.sourceforge.net/DTD/sodipodi-0.dtd"
   xmlns:inkscape="http://www.inkscape.org/namespaces/inkscape"
   viewBox="0 0 100 100"
   version="1.1"
   id="svg956"
   sodipodi:docname="San Diego.svg"
   inkscape:version="0.92.5 (2060ec1f9f, 2020-04-08)">
  <metadata
     id="metadata962">
    <rdf:RDF>
      <cc:Work
         rdf:about="">
        <dc:format>image/svg+xml</dc:format>
        <dc:type
           rdf:resource="http://purl.org/dc/dcmitype/StillImage" />
      </cc:Work>
    </rdf:RDF>
  </metadata>
  <defs
     id="defs960" />
  <sodipodi:namedview
     pagecolor="#ffffff"
     bordercolor="#666666"
     borderopacity="1"
     objecttolerance="10"
     gridtolerance="10"
     guidetolerance="10"
     inkscape:pageopacity="0"
     inkscape:pageshadow="2"
     inkscape:window-width="640"
     inkscape:window-height="565"
     id="namedview958"
     showgrid="false"
     inkscape:zoom="2.36"
     inkscape:cx="50"
     inkscape:cy="50"
     inkscape:window-x="0"
     inkscape:window-y="0"
     inkscape:window-maximized="0"
     inkscape:current-layer="svg956" />
  <path
     d="M51.5285,40.001V13.56152H47.757v30.5752H51.5285Zm-.709,3.42676H48.466V40.001h2.35352Zm0-4.13574H48.466V36.93848h2.35352Zm0-3.0625H48.466V32.80273h2.35352Zm0-4.13574H48.466V29.74023h2.35352Zm0-3.0625H48.466V25.60449h2.35352Zm0-4.13574H48.466V22.542h2.35352Zm0-3.0625H48.466V18.40625h2.35352Zm0-4.13574H48.466V14.27051h2.35352ZM44.28143,62.89648a1.417,1.417,0,1,0,1.417,1.417A1.4187,1.4187,0,0,0,44.28143,62.89648Zm0,2.125a.708.708,0,1,1,.708-.708A.70852.70852,0,0,1,44.28143,65.02148Zm10.80762-2.125a1.417,1.417,0,1,0,1.417,1.417A1.4187,1.4187,0,0,0,55.089,62.89648Zm0,2.125a.708.708,0,1,1,.708-.708A.70852.70852,0,0,1,55.089,65.02148Zm20.41113,6.45313h5.72461V64.99023H75.50018Zm.709-5.77539H80.5158v5.06641H76.20916Zm-52.49316-.709H17.99139v6.48438H23.716Zm-.709,5.77539H18.70037V65.69922H23.007Zm61.7832-31.86816a3.144,3.144,0,0,0,0-6.28809,3.19854,3.19854,0,0,0-.76367.09277,4.09853,4.09853,0,0,0-3.60449-2.15039A4.15176,4.15176,0,0,0,77.32952,31.812a38.04506,38.04506,0,0,0-8.71411-6.95581v-2.491H63.52166V10.87207H61.57244V8.46582H37.64861v2.40625H35.76385V22.36523H30.6701V24.824A37.92563,37.92563,0,0,0,15.89581,40.30865a2.99688,2.99688,0,0,0-.49426-.043,2.96324,2.96324,0,0,0-2.56445,1.48145,2.32492,2.32492,0,0,0-.47559-.04883,2.29639,2.29639,0,1,0,0,4.59277h1.06635a37.93634,37.93634,0,1,0,69.08978-7.45166Zm-7.665-5.25879a3.19355,3.19355,0,0,1,3.29688-2.37793,3.3872,3.3872,0,0,1,3.09473,2.01074l.13379.2998.30859-.10937a2.50033,2.50033,0,0,1,.83105-.14355,2.43507,2.43507,0,0,1,.00879,4.87012L75.8615,37.96a2.11328,2.11328,0,1,1,.78711-4.07324l.38281.15332Zm-13.60352,14.123V23.07422h4.38477V50.77148H63.52166ZM64.5744,57.0459,65.714,55.51953l1.14063,1.52637v2.79785H64.5744Zm-.709-.23633v3.03418h-1.416V54.543h2.91016v.26733ZM62.81268,11.58105V50.77148H61.299V43.42773h-.833V13.55957H58.591V11.58105ZM60.59,44.13672v6.63477H56.716V44.13672Zm-3.874-.709V14.26855h3.041V43.42773ZM38.3576,9.1748H60.86346v1.69727H57.882v2.6875H56.3615v.002h-3.417v30.5752H56.007v6.63477H53.6535V46.49023H45.632v4.28125H43.2785V44.13672H46.341V13.56152H42.924v-.002H41.4035v-2.6875H38.3576ZM53.6535,39.292V36.93848H56.007V39.292Zm2.35352.709v3.42676H53.6535V40.001ZM53.6535,36.22949V32.80273H56.007v3.42676Zm0-4.13574V29.74023H56.007v2.35352Zm0-3.0625V25.60449H56.007v3.42676Zm0-4.13574V22.542H56.007v2.35352Zm0-3.0625V18.40625H56.007V21.833Zm0-4.13574V14.27051H56.007v3.42676Zm-.709,29.502v3.57227H49.99725V47.19922Zm-3.65625,0v3.57227H46.341V47.19922ZM45.632,18.40625V21.833H43.2785V18.40625Zm-2.35352-.709V14.27051H45.632v3.42676ZM45.632,22.542v2.35352H43.2785V22.542Zm0,3.0625v3.42676H43.2785V25.60449Zm0,4.13574v2.35352H43.2785V29.74023Zm0,3.0625v3.42676H43.2785V32.80273Zm0,4.13574V39.292H43.2785V36.93848Zm0,3.0625v3.42676H43.2785V40.001ZM39.5285,43.42773V14.26855h3.041V43.42773Zm3.041.709v6.63477h-3.874V44.13672Zm-6.09668,3.625V11.58105h4.22168v1.97852h-1.875V43.42773h-.833v7.34375H36.47283Zm28.88672,3.71875V53.834H33.926V51.48047ZM58.78729,54.543v5.30078H40.61736V54.543ZM31.37908,23.07422h4.38477V50.77148H31.37908ZM32.3615,57.0459l1.14063-1.52637,1.13965,1.52637v2.79785H32.3615Zm-.709-.23633v3.03418h-1.416V54.543H33.217v.17432ZM12.3615,45.582a1.58741,1.58741,0,1,1,.53809-3.082l.31055.11328.13477-.30176a2.25086,2.25086,0,0,1,4.24707.39453l.09473.4043.38477-.15723a1.31523,1.31523,0,0,1,.50293-.09863,1.36377,1.36377,0,1,1,0,2.72754Zm1.80792.709h4.405a2.07275,2.07275,0,1,0,0-4.14551,2.04119,2.04119,0,0,0-.40137.03906,2.93112,2.93112,0,0,0-1.58362-1.66547A37.19857,37.19857,0,0,1,30.6701,25.657v25.1145H13.0357A36.99828,36.99828,0,0,1,14.16943,46.291Zm.83173,25.069a36.90485,36.90485,0,0,1-2.32593-9.12952h2.32593ZM25.99627,86.43719A37.429,37.429,0,0,1,15.71014,73.028V62.23047H25.99627Zm-7.2959-24.91571V57.65234H23.007v3.86914Zm7.2959,0H23.716V56.94336H17.99139v4.57813H12.58483a37.48928,37.48928,0,0,1-.197-3.835c0-1.053.04681-2.10126.134-3.14355H25.99627ZM12.592,53.834q.12177-1.183.316-2.35352H33.217V53.834H12.592Zm16.93549,6.00977V89.00159q-1.45917-.93915-2.82227-2.0069V54.543h2.82227Zm7.23926,3.05273V92.62366a37.098,37.098,0,0,1-6.53027-3.16711V60.55273h6.53027Zm0-3.05273h-1.416V56.80957L33.926,54.90308V54.543h2.84082ZM39.757,93.57532q-1.15631-.31787-2.28125-.708V63.60547H39.757Zm6.25586,1.15674c-.86-.08289-1.70978-.1994-2.55176-.34v-5.0473h2.55176Zm3.26172.16858c-.85858-.00769-1.7088-.04932-2.55273-.11444V89.34473h2.55273Zm0-6.26489H43.46111V86.35547h5.81348Zm0-2.98926H43.46111V83.36621h5.81348Zm0-2.98926H43.46111V80.376h5.81348Zm0-2.99023H43.46111V77.38672h5.81348Zm0-2.98926H43.46111V74.39746h5.81348Zm-4.01-2.98926H43.47906a6.13609,6.13609,0,0,1,.27246-1.51245Zm-1.228-2.2312a6.17979,6.17979,0,0,1,.99371-1.51111l3.74231,3.74231H46.26873Zm5.238,1.72925-3.74237-3.74237a6.17823,6.17823,0,0,1,1.55292-1.01447l2.18945,2.18945Zm0-3.57129-1.46631-1.46631a6.141,6.141,0,0,1,1.46631-.257Zm3.26172,25.16809c-.84387.066-1.69415.10785-2.55273.11639v-5.555h2.55273Zm3.26074-.39795c-.8421.14154-1.69171.26013-2.55176.34387V89.34473h2.55176Zm0-5.74963H49.98358V86.35547h5.81348Zm0-2.98926H49.98358V83.36621h5.81348Zm0-2.98926H49.98358V80.376h5.81348Zm0-2.99023H49.98358V77.38672h5.81348Zm0-2.98926H49.98358V74.39746h5.81348Zm-3.624-8.248a6.17823,6.17823,0,0,1,1.55292,1.01447l-3.74237,3.74237V70.61914Zm-2.18945,1.18555V67.892a6.141,6.141,0,0,1,1.46631.257Zm3.00586,4.07324H50.48553l3.74231-3.74231a6.17979,6.17979,0,0,1,.99371,1.51111ZM55.50665,72.176a6.13609,6.13609,0,0,1,.27246,1.51245H53.99358ZM61.74041,92.869q-1.12518.3891-2.28125.70776V63.60547h2.28125Zm0-33.02521v3.05273H58.75018v30.874c-.73889.18726-1.48859.34576-2.24414.488V73.68848h-.01794a6.86764,6.86764,0,0,0-13.718,0h-.01794v20.5766c-.76984-.144-1.53363-.305-2.28613-.49579V62.89648H37.47576V54.543h2.43262v6.00977H59.49627V54.543h2.24414Zm7.23926,29.61591a37.09507,37.09507,0,0,1-6.53027,3.16589V60.55273h6.53027Zm0-29.61591h-1.416V56.80957l-1.49512-1.99951V54.543h2.91113Zm3.53125,27.15479q-1.3623,1.06659-2.82227,2.00616V54.543h2.82227Zm.709-.5575V62.23047H83.506v10.708h.04541A37.429,37.429,0,0,1,73.2199,86.441Zm2.98926-24.91956V57.65234H80.5158v3.86914ZM84.215,71.37238V62.23047h2.33081A36.90476,36.90476,0,0,1,84.215,71.37238Zm2.61816-13.68585a37.48922,37.48922,0,0,1-.197,3.835H81.22479V56.94336H75.50018v4.57813H73.2199V54.543H86.685C86.773,55.58649,86.83318,56.63367,86.83318,57.68652Zm-.22-3.85254H66.06854V51.48047H86.29339Q86.49041,52.65079,86.61321,53.834Zm-.43994-3.0625H68.61541V25.6936a37.33133,37.33133,0,0,1,8.27979,6.68726,3.65683,3.65683,0,0,0-.354.72754,2.82187,2.82187,0,1,0-.68848,5.56055l5.84375.14941A37.03944,37.03944,0,0,1,86.17327,50.77148Z"
     id="path954"
     style="fill:rgb(108, 43, 217);fill-opacity:1" />
</svg>
