<svg width="20" height="20" viewBox="0 0 20 20" fill="none" xmlns="http://www.w3.org/2000/svg">
<path d="M5 8.33301V6.66699C5 3.90799 5.833 1.66699 10 1.66699C14.167 1.66699 15 3.90799 15 6.66699V8.33301" stroke="#8A94A6" stroke-width="1.5" stroke-linecap="round" stroke-linejoin="round"/>
<path d="M9.99899 15.417C11.15 15.417 12.083 14.484 12.083 13.333C12.083 12.183 11.15 11.25 9.99899 11.25C8.84899 11.25 7.91599 12.183 7.91599 13.333C7.91599 14.484 8.84899 15.417 9.99899 15.417Z" stroke="#8A94A6" stroke-width="1.5" stroke-linecap="round" stroke-linejoin="round"/>
<path d="M14.166 18.333H5.83301C2.49901 18.333 1.66599 17.5 1.66599 14.167V12.5C1.66599 9.167 2.49901 8.33301 5.83301 8.33301H14.166C17.499 8.33301 18.333 9.167 18.333 12.5V14.167C18.333 17.5 17.499 18.333 14.166 18.333Z" stroke="#8A94A6" stroke-width="1.5" stroke-linecap="round" stroke-linejoin="round"/>
</svg>
